<?xml version="1.0" encoding="UTF-8" standalone="no"?>
<!-- Generator: Adobe Illustrator 19.0.0, SVG Export Plug-In . SVG Version: 6.00 Build 0)  -->

<svg
   xmlns:dc="http://purl.org/dc/elements/1.1/"
   xmlns:cc="http://creativecommons.org/ns#"
   xmlns:rdf="http://www.w3.org/1999/02/22-rdf-syntax-ns#"
   xmlns:svg="http://www.w3.org/2000/svg"
   xmlns="http://www.w3.org/2000/svg"
   xmlns:sodipodi="http://sodipodi.sourceforge.net/DTD/sodipodi-0.dtd"
   xmlns:inkscape="http://www.inkscape.org/namespaces/inkscape"
   version="1.1"
   id="Layer_1"
   x="0px"
   y="0px"
   viewBox="0 0 1000 1000"
   xml:space="preserve"
   inkscape:version="0.91 r13725"
   sodipodi:docname="logo.svg"
   width="1000"
   height="1000"><metadata
     id="metadata43"><rdf:RDF><cc:Work
         rdf:about=""><dc:format>image/svg+xml</dc:format><dc:type
           rdf:resource="http://purl.org/dc/dcmitype/StillImage" /><dc:title /></cc:Work></rdf:RDF></metadata><defs
     id="defs41" /><sodipodi:namedview
     pagecolor="#ff4040"
     bordercolor="#666666"
     borderopacity="1"
     objecttolerance="10"
     gridtolerance="10"
     guidetolerance="10"
     inkscape:pageopacity="0"
     inkscape:pageshadow="2"
     inkscape:window-width="1076"
     inkscape:window-height="675"
     id="namedview39"
     showgrid="false"
     inkscape:zoom="0.4609375"
     inkscape:cx="384.93122"
     inkscape:cy="493.07629"
     inkscape:window-x="0"
     inkscape:window-y="0"
     inkscape:window-maximized="0"
     inkscape:current-layer="Layer_1" /><g
     id="g9"
     transform="translate(0,488)" /><g
     id="g11"
     transform="translate(0,488)" /><g
     id="g13"
     transform="translate(0,488)" /><g
     id="g15"
     transform="translate(0,488)" /><g
     id="g17"
     transform="translate(0,488)" /><g
     id="g19"
     transform="translate(0,488)" /><g
     id="g21"
     transform="translate(0,488)" /><g
     id="g23"
     transform="translate(0,488)" /><g
     id="g25"
     transform="translate(0,488)" /><g
     id="g27"
     transform="translate(0,488)" /><g
     id="g29"
     transform="translate(0,488)" /><g
     id="g31"
     transform="translate(0,488)" /><g
     id="g33"
     transform="translate(0,488)" /><g
     id="g35"
     transform="translate(0,488)" /><g
     id="g37"
     transform="translate(0,488)" /><g
     id="g4902"
     transform="matrix(1.5762712,0,0,1.5762712,135.73221,69.288133)" /><g
     id="g4904"
     transform="matrix(1.5762712,0,0,1.5762712,135.73221,69.288133)" /><g
     id="g4906"
     transform="matrix(1.5762712,0,0,1.5762712,135.73221,69.288133)" /><g
     id="g4908"
     transform="matrix(1.5762712,0,0,1.5762712,135.73221,69.288133)" /><g
     id="g4910"
     transform="matrix(1.5762712,0,0,1.5762712,135.73221,69.288133)" /><g
     id="g4912"
     transform="matrix(1.5762712,0,0,1.5762712,135.73221,69.288133)" /><g
     id="g4914"
     transform="matrix(1.5762712,0,0,1.5762712,135.73221,69.288133)" /><g
     id="g4916"
     transform="matrix(1.5762712,0,0,1.5762712,135.73221,69.288133)" /><g
     id="g4918"
     transform="matrix(1.5762712,0,0,1.5762712,135.73221,69.288133)" /><g
     id="g4920"
     transform="matrix(1.5762712,0,0,1.5762712,135.73221,69.288133)" /><g
     id="g4922"
     transform="matrix(1.5762712,0,0,1.5762712,135.73221,69.288133)" /><g
     id="g4924"
     transform="matrix(1.5762712,0,0,1.5762712,135.73221,69.288133)" /><g
     id="g4926"
     transform="matrix(1.5762712,0,0,1.5762712,135.73221,69.288133)" /><g
     id="g4928"
     transform="matrix(1.5762712,0,0,1.5762712,135.73221,69.288133)" /><g
     id="g4930"
     transform="matrix(1.5762712,0,0,1.5762712,135.73221,69.288133)" /><g
     id="g5014"
     transform="matrix(0.70112803,-0.7130354,0.7130354,0.70112803,-221.00882,465.01548)" /><g
     id="g5016"
     transform="matrix(0.70112803,-0.7130354,0.7130354,0.70112803,-221.00882,465.01548)" /><g
     id="g5018"
     transform="matrix(0.70112803,-0.7130354,0.7130354,0.70112803,-221.00882,465.01548)" /><g
     id="g5020"
     transform="matrix(0.70112803,-0.7130354,0.7130354,0.70112803,-221.00882,465.01548)" /><g
     id="g5022"
     transform="matrix(0.70112803,-0.7130354,0.7130354,0.70112803,-221.00882,465.01548)" /><g
     id="g5024"
     transform="matrix(0.70112803,-0.7130354,0.7130354,0.70112803,-221.00882,465.01548)" /><g
     id="g5026"
     transform="matrix(0.70112803,-0.7130354,0.7130354,0.70112803,-221.00882,465.01548)" /><g
     id="g5028"
     transform="matrix(0.70112803,-0.7130354,0.7130354,0.70112803,-221.00882,465.01548)" /><g
     id="g5030"
     transform="matrix(0.70112803,-0.7130354,0.7130354,0.70112803,-221.00882,465.01548)" /><g
     id="g5032"
     transform="matrix(0.70112803,-0.7130354,0.7130354,0.70112803,-221.00882,465.01548)" /><g
     id="g5034"
     transform="matrix(0.70112803,-0.7130354,0.7130354,0.70112803,-221.00882,465.01548)" /><g
     id="g5036"
     transform="matrix(0.70112803,-0.7130354,0.7130354,0.70112803,-221.00882,465.01548)" /><g
     id="g5038"
     transform="matrix(0.70112803,-0.7130354,0.7130354,0.70112803,-221.00882,465.01548)" /><g
     id="g5040"
     transform="matrix(0.70112803,-0.7130354,0.7130354,0.70112803,-221.00882,465.01548)" /><g
     id="g5042"
     transform="matrix(0.70112803,-0.7130354,0.7130354,0.70112803,-221.00882,465.01548)" /><rect
     style="color:#000000;clip-rule:nonzero;display:inline;overflow:visible;visibility:visible;opacity:1;isolation:auto;mix-blend-mode:normal;color-interpolation:sRGB;color-interpolation-filters:linearRGB;solid-color:#000000;solid-opacity:1;fill:#ffffff;fill-opacity:1;fill-rule:nonzero;stroke:#ffffff;stroke-width:10;stroke-linecap:butt;stroke-linejoin:miter;stroke-miterlimit:4;stroke-dasharray:none;stroke-dashoffset:0;stroke-opacity:1;color-rendering:auto;image-rendering:auto;shape-rendering:auto;text-rendering:auto;enable-background:accumulate"
     id="rect4225"
     width="408.94916"
     height="15.18644"
     x="176.98305"
     y="607.49152" /><path
     style="fill:#663399;fill-opacity:1"
     id="path4325"
     d="M 589.98844,619.98459 303.52376,906.44931 c -27.89436,27.89431 -65.54334,43.49291 -104.98652,43.49291 -41.09091,0 -78.13938,-16.64576 -104.986516,-43.49291 -26.847138,-26.84716 -43.492942,-63.8957 -43.492942,-104.98652 0,-19.64838 3.895989,-38.99649 11.248552,-56.69692 7.352566,-17.99319 18.300875,-34.34604 32.24439,-48.2896 l 76.491646,-76.49168 z m 0,0"
     inkscape:connector-curvature="0" /><path
     inkscape:connector-curvature="0"
     d="m 904.948,335.69231 c -41.72843,0 -75.66151,-33.933 -75.66151,-75.66149 0,-41.72835 33.93308,-75.66151 75.66151,-75.66151 41.72841,0 75.66149,33.93316 75.66149,75.66151 0,41.72849 -33.93308,75.66149 -75.66149,75.66149 z m 0,0"
     id="path4217"
     style="fill:#ffffff;fill-opacity:1" /><path
     style="fill:#663399;fill-opacity:1"
     id="path4327"
     d="m 904.948,320.02311 c -33.08658,0 -59.9923,-26.90564 -59.9923,-59.99229 0,-33.0865 26.90572,-59.9923 59.9923,-59.9923 33.08657,0 59.99229,26.9058 59.99229,59.9923 0,33.08665 -26.90572,59.99229 -59.99229,59.99229 z m 0,0"
     inkscape:connector-curvature="0" /><path
     inkscape:connector-curvature="0"
     d="m 679.97691,185.61615 c -33.3893,0 -60.56802,-27.1787 -60.56802,-60.56798 0,-33.389327 27.17873,-60.568017 60.56802,-60.568017 33.38925,0 60.56798,27.17869 60.56798,60.568017 0,33.38928 -27.17872,60.56798 -60.56798,60.56798 z m 0,0"
     id="path4221"
     style="fill:#ffffff;fill-opacity:1" /><path
     style="fill:#663399;fill-opacity:1"
     id="path4329"
     d="m 679.97689,170.04237 c -24.80395,0 -44.99423,-20.19025 -44.99423,-44.99422 0,-24.80396 20.19028,-44.994221 44.99423,-44.994221 24.80395,0 44.99422,20.190261 44.99422,44.994221 0,24.80397 -20.19027,44.99422 -44.99422,44.99422 z m 0,0"
     inkscape:connector-curvature="0" /><path
     inkscape:connector-curvature="0"
     d="m 859.95376,139.95493 c -33.02152,0 -59.90099,-26.87945 -59.90099,-59.901001 0,-33.021634 26.87946,-59.901001 59.90099,-59.901001 33.02156,0 59.90101,26.879367 59.90101,59.901001 0,33.021551 -26.87947,59.901001 -59.90101,59.901001 z m 0,0"
     id="path4219"
     style="fill:#ffffff;fill-opacity:1" /><path
     style="fill:#663399;fill-opacity:1"
     id="path4331"
     d="m 859.95377,125.04815 c -24.80395,0 -44.99422,-20.19026 -44.99422,-44.994221 0,-24.803965 20.19027,-44.994222 44.99422,-44.994222 24.80395,0 44.99423,20.190257 44.99423,44.994222 0,24.803961 -20.19028,44.994221 -44.99423,44.994221 z m 0,0"
     inkscape:connector-curvature="0" /><path
     inkscape:connector-curvature="0"
     d="M 828.14145,416.96871 583.01668,171.87319 C 572.1709,161.01278 557.77334,155.0443 542.41643,155.0443 c -31.6512,0 -57.41451,25.74869 -57.41451,57.42912 0,15.32759 5.96847,29.73984 16.81426,40.60024 l 6.97175,6.95716 -425.855963,425.85591 c -30.867608,30.86769 -47.872259,71.91471 -47.872259,115.59061 0,90.12027 73.342632,163.46295 163.462892,163.46295 43.66139,0 84.70836,-17.00466 115.59062,-47.8722 l 425.85596,-425.85606 6.97177,6.95716 c 10.84578,10.8604 25.24333,16.82888 40.60025,16.82888 31.6512,0 57.4145,-25.74869 57.4145,-57.42912 0,-15.32758 -5.96847,-29.73983 -16.81425,-40.60024 z m -40.60025,68.03322 c -7.21344,0 -14.27307,-2.92193 -19.39205,-8.04092 L 739.96918,448.79568 292.90502,895.85977 c -25.19209,25.19946 -58.7327,39.08438 -94.38242,39.08438 -73.59163,0 -133.466747,-59.87516 -133.466747,-133.46681 0,-35.64968 13.884932,-69.17562 39.084337,-94.38228 l 155.89062,-155.89073 34.39012,34.39013 21.20821,-21.20818 -34.39012,-34.39013 23.78602,-23.78605 64.38626,64.38629 21.20821,-21.20818 -64.38627,-64.38628 23.78602,-23.78605 34.39012,34.39014 21.2082,-21.20818 -34.39011,-34.39014 23.78601,-23.78604 64.38627,64.38628 21.2082,-21.20818 -64.38626,-64.38628 23.78601,-23.78604 34.39012,34.39013 21.20821,-21.20818 -34.39012,-34.39013 23.78601,-23.78604 64.38627,64.38628 21.20821,-21.20818 -64.38627,-64.38628 23.78602,-23.77135 154.37471,154.36003 21.2082,-21.20818 -182.55468,-182.54006 c -5.17756,-5.19218 -8.02631,-12.07615 -8.02631,-19.39206 0,-15.13725 12.29578,-27.43297 27.41836,-27.43297 7.21343,0 14.27306,2.92192 19.39204,8.04091 l 245.12477,245.09553 c 5.17756,5.19218 8.02631,12.07615 8.02631,19.39206 0,15.13726 -12.29578,27.43298 -27.41835,27.43298 z m 0,0"
     id="path4333"
     style="fill:#ffffff" /><path
     style="fill:#ffffff"
     inkscape:connector-curvature="0"
     d="m 144.92025,854.02069 c -20.7507,-20.75074 -31.62011,-48.41843 -31.62011,-75.09791 l 107.706,106.7179 c -27.66759,-0.98807 -55.33518,-10.86941 -76.08589,-31.61999 z M 245.70936,882.67631 116.26453,753.23153 c 10.86942,-48.41828 54.34706,-84.97909 105.72974,-84.97909 36.56076,0 68.18087,17.78637 87.94345,44.46584 l -14.82193,12.8457 c -16.79818,-22.72703 -43.47766,-37.54902 -73.12152,-37.54902 -38.53701,0 -71.14525,24.70332 -83.99092,59.28783 L 251.63813,860.9375 c 28.65573,-9.88133 50.39455,-34.58451 57.31145,-64.22835 l -47.43016,0 0,-19.76251 69.16899,0 c 0,51.38265 -36.56075,94.86026 -84.97905,105.72967 z"
     id="path4465" /></svg>