<?xml version="1.0" encoding="UTF-8" standalone="no"?>
<!-- Generator: Adobe Illustrator 19.0.0, SVG Export Plug-In . SVG Version: 6.00 Build 0)  -->

<svg
   xmlns:dc="http://purl.org/dc/elements/1.1/"
   xmlns:cc="http://creativecommons.org/ns#"
   xmlns:rdf="http://www.w3.org/1999/02/22-rdf-syntax-ns#"
   xmlns:svg="http://www.w3.org/2000/svg"
   xmlns="http://www.w3.org/2000/svg"
   xmlns:sodipodi="http://sodipodi.sourceforge.net/DTD/sodipodi-0.dtd"
   xmlns:inkscape="http://www.inkscape.org/namespaces/inkscape"
   version="1.1"
   id="Layer_1"
   x="0px"
   y="0px"
   viewBox="0 0 1000 1000"
   xml:space="preserve"
   inkscape:version="0.91 r13725"
   sodipodi:docname="logo.svg"
   width="1000"
   height="1000"><metadata
     id="metadata43"><rdf:RDF><cc:Work
         rdf:about=""><dc:format>image/svg+xml</dc:format><dc:type
           rdf:resource="http://purl.org/dc/dcmitype/StillImage" /><dc:title></dc:title></cc:Work></rdf:RDF></metadata><defs
     id="defs41" /><sodipodi:namedview
     pagecolor="#ff4040"
     bordercolor="#666666"
     borderopacity="1"
     objecttolerance="10"
     gridtolerance="10"
     guidetolerance="10"
     inkscape:pageopacity="0"
     inkscape:pageshadow="2"
     inkscape:window-width="1076"
     inkscape:window-height="675"
     id="namedview39"
     showgrid="false"
     inkscape:zoom="0.32593203"
     inkscape:cx="418.63134"
     inkscape:cy="665.65579"
     inkscape:window-x="0"
     inkscape:window-y="0"
     inkscape:window-maximized="0"
     inkscape:current-layer="Layer_1" /><g
     id="g9"
     transform="translate(0,488)" /><g
     id="g11"
     transform="translate(0,488)" /><g
     id="g13"
     transform="translate(0,488)" /><g
     id="g15"
     transform="translate(0,488)" /><g
     id="g17"
     transform="translate(0,488)" /><g
     id="g19"
     transform="translate(0,488)" /><g
     id="g21"
     transform="translate(0,488)" /><g
     id="g23"
     transform="translate(0,488)" /><g
     id="g25"
     transform="translate(0,488)" /><g
     id="g27"
     transform="translate(0,488)" /><g
     id="g29"
     transform="translate(0,488)" /><g
     id="g31"
     transform="translate(0,488)" /><g
     id="g33"
     transform="translate(0,488)" /><g
     id="g35"
     transform="translate(0,488)" /><g
     id="g37"
     transform="translate(0,488)" /><g
     id="g4902"
     transform="matrix(1.5762712,0,0,1.5762712,135.73221,69.288133)" /><g
     id="g4904"
     transform="matrix(1.5762712,0,0,1.5762712,135.73221,69.288133)" /><g
     id="g4906"
     transform="matrix(1.5762712,0,0,1.5762712,135.73221,69.288133)" /><g
     id="g4908"
     transform="matrix(1.5762712,0,0,1.5762712,135.73221,69.288133)" /><g
     id="g4910"
     transform="matrix(1.5762712,0,0,1.5762712,135.73221,69.288133)" /><g
     id="g4912"
     transform="matrix(1.5762712,0,0,1.5762712,135.73221,69.288133)" /><g
     id="g4914"
     transform="matrix(1.5762712,0,0,1.5762712,135.73221,69.288133)" /><g
     id="g4916"
     transform="matrix(1.5762712,0,0,1.5762712,135.73221,69.288133)" /><g
     id="g4918"
     transform="matrix(1.5762712,0,0,1.5762712,135.73221,69.288133)" /><g
     id="g4920"
     transform="matrix(1.5762712,0,0,1.5762712,135.73221,69.288133)" /><g
     id="g4922"
     transform="matrix(1.5762712,0,0,1.5762712,135.73221,69.288133)" /><g
     id="g4924"
     transform="matrix(1.5762712,0,0,1.5762712,135.73221,69.288133)" /><g
     id="g4926"
     transform="matrix(1.5762712,0,0,1.5762712,135.73221,69.288133)" /><g
     id="g4928"
     transform="matrix(1.5762712,0,0,1.5762712,135.73221,69.288133)" /><g
     id="g4930"
     transform="matrix(1.5762712,0,0,1.5762712,135.73221,69.288133)" /><g
     id="g5014"
     transform="matrix(0.70112803,-0.7130354,0.7130354,0.70112803,-221.00882,465.01548)" /><g
     id="g5016"
     transform="matrix(0.70112803,-0.7130354,0.7130354,0.70112803,-221.00882,465.01548)" /><g
     id="g5018"
     transform="matrix(0.70112803,-0.7130354,0.7130354,0.70112803,-221.00882,465.01548)" /><g
     id="g5020"
     transform="matrix(0.70112803,-0.7130354,0.7130354,0.70112803,-221.00882,465.01548)" /><g
     id="g5022"
     transform="matrix(0.70112803,-0.7130354,0.7130354,0.70112803,-221.00882,465.01548)" /><g
     id="g5024"
     transform="matrix(0.70112803,-0.7130354,0.7130354,0.70112803,-221.00882,465.01548)" /><g
     id="g5026"
     transform="matrix(0.70112803,-0.7130354,0.7130354,0.70112803,-221.00882,465.01548)" /><g
     id="g5028"
     transform="matrix(0.70112803,-0.7130354,0.7130354,0.70112803,-221.00882,465.01548)" /><g
     id="g5030"
     transform="matrix(0.70112803,-0.7130354,0.7130354,0.70112803,-221.00882,465.01548)" /><g
     id="g5032"
     transform="matrix(0.70112803,-0.7130354,0.7130354,0.70112803,-221.00882,465.01548)" /><g
     id="g5034"
     transform="matrix(0.70112803,-0.7130354,0.7130354,0.70112803,-221.00882,465.01548)" /><g
     id="g5036"
     transform="matrix(0.70112803,-0.7130354,0.7130354,0.70112803,-221.00882,465.01548)" /><g
     id="g5038"
     transform="matrix(0.70112803,-0.7130354,0.7130354,0.70112803,-221.00882,465.01548)" /><g
     id="g5040"
     transform="matrix(0.70112803,-0.7130354,0.7130354,0.70112803,-221.00882,465.01548)" /><g
     id="g5042"
     transform="matrix(0.70112803,-0.7130354,0.7130354,0.70112803,-221.00882,465.01548)" /><g
     id="g4501"
     transform="matrix(1.4998074,0,0,1.4998074,-94.769923,-444.49759)"><path
       inkscape:connector-curvature="0"
       d="m 456.5642,709.74592 -191.00098,191.001 c -18.59863,18.5986 -43.70117,28.999 -70,28.999 -27.39746,0 -52.09961,-11.0986 -70,-28.999 -17.90039,-17.9004 -28.999018,-42.6026 -28.999018,-70 0,-13.1006 2.59766,-26.001 7.499998,-37.8028 4.90234,-11.997 12.20215,-22.9003 21.49902,-32.1972 l 51.00098,-51.001 z m 0,0"
       id="path4325"
       style="fill:#663399;fill-opacity:1" /><path
       inkscape:connector-curvature="0"
       d="m 666.5642,509.74592 c -22.06055,0 -40,-17.9394 -40,-40 0,-22.0605 17.93945,-40 40,-40 22.06055,0 40,17.9395 40,40 0,22.0606 -17.93945,40 -40,40 z m 0,0"
       id="path4327"
       style="fill:#663399;fill-opacity:1" /><path
       inkscape:connector-curvature="0"
       d="m 516.5642,409.74592 c -16.53809,0 -30,-13.4619 -30,-30 0,-16.5381 13.46191,-30 30,-30 16.53809,0 30,13.4619 30,30 0,16.5381 -13.46191,30 -30,30 z m 0,0"
       id="path4329"
       style="fill:#663399;fill-opacity:1" /><path
       inkscape:connector-curvature="0"
       d="m 636.5642,379.74592 c -16.53809,0 -30,-13.4619 -30,-30 0,-16.5381 13.46191,-30 30,-30 16.53809,0 30,13.4619 30,30 0,16.5381 -13.46191,30 -30,30 z m 0,0"
       id="path4331"
       style="fill:#663399;fill-opacity:1" /><path
       style="fill:#ffffff"
       id="path4333"
       d="m 615.35326,574.38462 -163.4375,-163.418 c -7.23145,-7.2412 -16.83105,-11.2207 -27.07031,-11.2207 -21.10351,0 -38.28125,17.168 -38.28125,38.291 0,10.2197 3.97949,19.8291 11.21094,27.0703 l 4.64843,4.6387 -283.94043,283.9404 c -20.581048,20.5811 -31.918938,47.9493 -31.918938,77.0703 0,60.0879 48.901368,108.9893 108.989258,108.9893 29.11133,0 56.47949,-11.3379 77.07031,-31.9189 l 283.94043,-283.9405 4.64844,4.6387 c 7.23145,7.2412 16.83105,11.2207 27.07031,11.2207 21.10351,0 38.28125,-17.168 38.28125,-38.291 0,-10.2197 -3.97949,-19.8291 -11.21094,-27.0703 z m -27.07031,45.3613 c -4.80958,0 -9.5166,-1.9482 -12.92969,-5.3613 l -18.78906,-18.7793 -298.08105,298.081 c -16.79688,16.8018 -39.16016,26.0596 -62.92969,26.0596 -49.06739,0 -88.98926,-39.9219 -88.98926,-88.9893 0,-23.7695 9.25781,-46.123 26.05957,-62.9296 l 103.94043,-103.9405 22.92969,22.9297 14.14062,-14.1406 -22.92969,-22.9297 15.85938,-15.8594 42.92969,42.9297 14.14062,-14.1406 -42.92969,-42.9297 15.85938,-15.8594 22.92969,22.9297 14.14062,-14.1406 -22.92969,-22.9297 15.85938,-15.8594 42.92969,42.9297 14.14062,-14.1406 -42.92969,-42.9297 15.85938,-15.8594 22.92969,22.9297 14.14062,-14.1406 -22.92969,-22.9297 15.85938,-15.8594 42.92969,42.9297 14.14062,-14.1406 -42.92969,-42.9297 15.85938,-15.8496 102.92969,102.9199 14.14062,-14.1406 -121.71875,-121.709 c -3.45215,-3.4619 -5.35156,-8.0518 -5.35156,-12.9297 0,-10.0928 8.19824,-18.291 18.28125,-18.291 4.80957,0 9.5166,1.9482 12.92969,5.3613 l 163.4375,163.418 c 3.45215,3.4619 5.35156,8.0518 5.35156,12.9297 0,10.0928 -8.19824,18.291 -18.28125,18.291 z m 0,0"
       inkscape:connector-curvature="0" /><path
       id="path4465"
       d="m 159.81397,865.79002 c -13.83558,-13.8356 -21.08278,-32.2831 -21.08278,-50.0717 l 71.81322,71.1544 c -18.44743,-0.6588 -36.89486,-7.2472 -50.73044,-21.0827 z m 67.20137,19.1062 -86.30764,-86.3076 c 7.24721,-32.283 36.23603,-56.66 70.49555,-56.66 24.37697,0 45.45975,11.8591 58.63649,29.6477 l -9.88255,8.5649 c -11.20023,-15.1533 -28.98883,-25.0359 -48.75394,-25.0359 -25.69464,0 -47.43626,16.471 -56.00114,39.5303 l 75.76625,75.7662 c 19.10627,-6.5884 33.60068,-23.0593 38.21254,-42.8244 l -31.62417,0 0,-13.1767 46.11858,0 c 0,34.2595 -24.37696,63.2483 -56.65997,70.4955 z"
       inkscape:connector-curvature="0"
       style="fill:#ffffff" /></g></svg>